<?xml version="1.0" encoding="UTF-8" standalone="no"?>
<svg
   xmlns:dc="http://purl.org/dc/elements/1.1/"
   xmlns:cc="http://creativecommons.org/ns#"
   xmlns:rdf="http://www.w3.org/1999/02/22-rdf-syntax-ns#"
   xmlns:svg="http://www.w3.org/2000/svg"
   xmlns="http://www.w3.org/2000/svg"
   xmlns:sodipodi="http://sodipodi.sourceforge.net/DTD/sodipodi-0.dtd"
   xmlns:inkscape="http://www.inkscape.org/namespaces/inkscape"
   version="1.1"
   id="Capa_1"
   x="0px"
   y="0px"
   viewBox="0 0 504.986 504.986"
   style="enable-background:new 0 0 504.986 504.986;"
   xml:space="preserve"
   sodipodi:docname="cpu-white.svg"
   inkscape:version="1.0.1 (3bc2e813f5, 2020-09-07)"><metadata
   id="metadata142"><rdf:RDF><cc:Work
       rdf:about=""><dc:format>image/svg+xml</dc:format><dc:type
         rdf:resource="http://purl.org/dc/dcmitype/StillImage" /><dc:title></dc:title></cc:Work></rdf:RDF></metadata><defs
   id="defs140" /><sodipodi:namedview
   pagecolor="#ffffff"
   bordercolor="#666666"
   borderopacity="1"
   objecttolerance="10"
   gridtolerance="10"
   guidetolerance="10"
   inkscape:pageopacity="0"
   inkscape:pageshadow="2"
   inkscape:window-width="2560"
   inkscape:window-height="1404"
   id="namedview138"
   showgrid="false"
   inkscape:zoom="2.3921455"
   inkscape:cx="252.493"
   inkscape:cy="252.493"
   inkscape:window-x="0"
   inkscape:window-y="36"
   inkscape:window-maximized="0"
   inkscape:current-layer="Capa_1" />
<g
   id="g99"
   style="fill:#ffffff">
	<g
   id="g97"
   style="fill:#ffffff">
		<path
   d="M361.206,129.753H143.781c-7.715,0-14.027,6.312-14.027,14.027v217.425c0,7.715,6.312,14.027,14.027,14.027h217.425    c7.715,0,14.027-6.312,14.027-14.027V143.781C375.233,136.066,368.921,129.753,361.206,129.753z M347.178,347.178h-189.37v-52.603    h28.055c7.715,0,14.027-6.312,14.027-14.027c0-7.715-6.312-14.027-14.027-14.027h-28.055v-28.055h56.11    c7.715,0,14.027-6.312,14.027-14.027c0-7.715-6.312-14.027-14.027-14.027h-56.11v-52.603h189.37V347.178z"
   id="path95"
   style="fill:#ffffff" />
	</g>
</g>
<g
   id="g105"
   style="fill:#ffffff">
	<g
   id="g103"
   style="fill:#ffffff">
		<path
   d="M504.986,216.022c0-7.715-6.312-14.027-14.027-14.027h-44.888v-44.186h44.888c7.715,0,14.027-6.312,14.027-14.027    s-6.312-14.027-14.027-14.027h-44.888V99.595c0-22.444-18.236-40.679-40.679-40.679h-30.159V14.027    C375.233,6.312,368.921,0,361.206,0c-7.715,0-14.027,6.312-14.027,14.027v44.888H302.29V14.027C302.29,6.312,295.978,0,288.263,0    c-7.715,0-14.027,6.312-14.027,14.027v44.888h-44.888V14.027C229.348,6.312,223.036,0,215.321,0    c-7.715,0-14.027,6.312-14.027,14.027v44.888h-43.485V14.027C157.808,6.312,151.496,0,143.781,0s-14.027,6.312-14.027,14.027    v44.888H99.595c-22.444,0-40.679,18.236-40.679,40.679v30.159H14.027C6.312,129.753,0,136.066,0,143.781    s6.312,14.027,14.027,14.027h44.888v44.888H14.027C6.312,202.696,0,209.008,0,216.723c0,7.715,6.312,14.027,14.027,14.027h44.888    v44.888H14.027C6.312,275.638,0,281.951,0,289.666c0,7.715,6.312,14.027,14.027,14.027h44.888v43.485H14.027    C6.312,347.178,0,353.49,0,361.206c0,7.715,6.312,14.027,14.027,14.027h44.888v30.159c0,22.444,18.236,40.679,40.679,40.679    h30.159v44.888c0,7.715,6.312,14.027,14.027,14.027s14.027-6.312,14.027-14.027v-44.888h44.888v44.888    c0,7.715,6.312,14.027,14.027,14.027c7.715,0,14.027-6.312,14.027-14.027v-44.888h44.888v44.888    c0,7.715,6.312,14.027,14.027,14.027c7.715,0,14.027-6.312,14.027-14.027v-44.888h43.485v44.888    c0,7.715,6.312,14.027,14.027,14.027c7.715,0,14.027-6.312,14.027-14.027v-44.888h30.159c22.444,0,40.679-18.236,40.679-40.679    v-30.159h44.888c7.715,0,14.027-6.312,14.027-14.027c0-7.715-6.312-14.027-14.027-14.027h-44.888V302.29h44.888    c7.715,0,14.027-6.312,14.027-14.027c0-7.715-6.312-14.027-14.027-14.027h-44.888v-44.888h44.888v0.701    C498.674,230.049,504.986,223.737,504.986,216.022z M418.718,405.392h-0.701c0,7.014-5.611,12.625-12.625,12.625H99.595    c-7.014,0-12.625-5.611-12.625-12.625V99.595c0-7.014,5.611-12.625,12.625-12.625h306.499c7.014,0,12.625,5.611,12.625,12.625    V405.392z"
   id="path101"
   style="fill:#ffffff" />
	</g>
</g>
<g
   id="g107">
</g>
<g
   id="g109">
</g>
<g
   id="g111">
</g>
<g
   id="g113">
</g>
<g
   id="g115">
</g>
<g
   id="g117">
</g>
<g
   id="g119">
</g>
<g
   id="g121">
</g>
<g
   id="g123">
</g>
<g
   id="g125">
</g>
<g
   id="g127">
</g>
<g
   id="g129">
</g>
<g
   id="g131">
</g>
<g
   id="g133">
</g>
<g
   id="g135">
</g>
</svg>
