<?xml version="1.0" encoding="UTF-8" standalone="no"?>
<svg
   xmlns:dc="http://purl.org/dc/elements/1.1/"
   xmlns:cc="http://creativecommons.org/ns#"
   xmlns:rdf="http://www.w3.org/1999/02/22-rdf-syntax-ns#"
   xmlns:svg="http://www.w3.org/2000/svg"
   xmlns="http://www.w3.org/2000/svg"
   xmlns:sodipodi="http://sodipodi.sourceforge.net/DTD/sodipodi-0.dtd"
   xmlns:inkscape="http://www.inkscape.org/namespaces/inkscape"
   version="1.1"
   id="Capa_1"
   x="0px"
   y="0px"
   viewBox="0 0 511.648 511.648"
   style="enable-background:new 0 0 511.648 511.648;"
   xml:space="preserve"
   sodipodi:docname="down-arrow-white.svg"
   inkscape:version="1.0.1 (3bc2e813f5, 2020-09-07)"><metadata
   id="metadata544"><rdf:RDF><cc:Work
       rdf:about=""><dc:format>image/svg+xml</dc:format><dc:type
         rdf:resource="http://purl.org/dc/dcmitype/StillImage" /><dc:title></dc:title></cc:Work></rdf:RDF></metadata><defs
   id="defs542" /><sodipodi:namedview
   pagecolor="#ffffff"
   bordercolor="#666666"
   borderopacity="1"
   objecttolerance="10"
   gridtolerance="10"
   guidetolerance="10"
   inkscape:pageopacity="0"
   inkscape:pageshadow="2"
   inkscape:window-width="2560"
   inkscape:window-height="1404"
   id="namedview540"
   showgrid="false"
   inkscape:zoom="1.868472"
   inkscape:cx="256.8944"
   inkscape:cy="255.82401"
   inkscape:window-x="0"
   inkscape:window-y="36"
   inkscape:window-maximized="0"
   inkscape:current-layer="Capa_1" />
<g
   id="g507"
   transform="matrix(1,0,0,-1,0,511.648)"
   style="fill:#ffffff">
	<g
   id="g505"
   style="fill:#ffffff">
		<path
   d="m 372.615,134.048 -96,-128 c -6.016,-8.064 -19.552,-8.064 -25.6,0 l -96,128 c -3.648,4.864 -4.224,11.328 -1.504,16.768 2.72,5.408 8.256,8.832 14.304,8.832 h 48 v 186.176 c 0,38.848 -26.976,77.92 -56.096,114.336 l -20.384,25.504 c -4.192,5.248 -4.672,12.576 -1.184,18.304 2.944,4.832 8.16,7.68 13.664,7.68 1.024,0 2.08,-0.096 3.136,-0.32 C 250.247,492.32 311.815,409.536 311.815,300.48 V 159.648 h 48 c 6.048,0 11.584,-3.424 14.304,-8.832 2.72,-5.408 2.144,-11.904 -1.504,-16.768 z"
   id="path503"
   style="fill:#ffffff" />
	</g>
</g>
<g
   id="g509">
</g>
<g
   id="g511">
</g>
<g
   id="g513">
</g>
<g
   id="g515">
</g>
<g
   id="g517">
</g>
<g
   id="g519">
</g>
<g
   id="g521">
</g>
<g
   id="g523">
</g>
<g
   id="g525">
</g>
<g
   id="g527">
</g>
<g
   id="g529">
</g>
<g
   id="g531">
</g>
<g
   id="g533">
</g>
<g
   id="g535">
</g>
<g
   id="g537">
</g>
</svg>
