<?xml version="1.0" encoding="UTF-8" standalone="no"?>
<svg
   xmlns:dc="http://purl.org/dc/elements/1.1/"
   xmlns:cc="http://creativecommons.org/ns#"
   xmlns:rdf="http://www.w3.org/1999/02/22-rdf-syntax-ns#"
   xmlns:svg="http://www.w3.org/2000/svg"
   xmlns="http://www.w3.org/2000/svg"
   xmlns:sodipodi="http://sodipodi.sourceforge.net/DTD/sodipodi-0.dtd"
   xmlns:inkscape="http://www.inkscape.org/namespaces/inkscape"
   version="1.1"
   id="Capa_1"
   x="0px"
   y="0px"
   width="471.362px"
   height="471.362px"
   viewBox="0 0 471.362 471.362"
   style="enable-background:new 0 0 471.362 471.362;"
   xml:space="preserve"
   sodipodi:docname="terminal-white.svg"
   inkscape:version="1.0.1 (3bc2e813f5, 2020-09-07)"><metadata
   id="metadata379"><rdf:RDF><cc:Work
       rdf:about=""><dc:format>image/svg+xml</dc:format><dc:type
         rdf:resource="http://purl.org/dc/dcmitype/StillImage" /><dc:title></dc:title></cc:Work></rdf:RDF></metadata><defs
   id="defs377" /><sodipodi:namedview
   pagecolor="#ffffff"
   bordercolor="#666666"
   borderopacity="1"
   objecttolerance="10"
   gridtolerance="10"
   guidetolerance="10"
   inkscape:pageopacity="0"
   inkscape:pageshadow="2"
   inkscape:window-width="2560"
   inkscape:window-height="1404"
   id="namedview375"
   showgrid="false"
   inkscape:zoom="2.0281652"
   inkscape:cx="236.66711"
   inkscape:cy="235.681"
   inkscape:window-x="0"
   inkscape:window-y="36"
   inkscape:window-maximized="0"
   inkscape:current-layer="Capa_1" />
<g
   id="g342"
   style="fill:#ffffff">
	<g
   id="g340"
   style="fill:#ffffff">
		<path
   d="M468.794,355.171c-1.707-1.718-3.897-2.57-6.563-2.57H188.145c-2.664,0-4.854,0.853-6.567,2.57    c-1.711,1.711-2.565,3.897-2.565,6.563v18.274c0,2.662,0.854,4.853,2.565,6.563c1.713,1.712,3.903,2.57,6.567,2.57h274.086    c2.666,0,4.856-0.858,6.563-2.57c1.711-1.711,2.567-3.901,2.567-6.563v-18.274C471.365,359.068,470.513,356.882,468.794,355.171z"
   id="path336"
   style="fill:#ffffff" />
		<path
   d="M30.259,85.075c-1.903-1.903-4.093-2.856-6.567-2.856s-4.661,0.953-6.563,2.856L2.852,99.353    C0.95,101.255,0,103.442,0,105.918c0,2.478,0.95,4.664,2.852,6.567L115.06,224.69L2.852,336.896C0.95,338.799,0,340.989,0,343.46    c0,2.478,0.95,4.665,2.852,6.567l14.276,14.273c1.903,1.906,4.089,2.854,6.563,2.854s4.665-0.951,6.567-2.854l133.048-133.045    c1.903-1.902,2.853-4.096,2.853-6.57c0-2.473-0.95-4.663-2.853-6.565L30.259,85.075z"
   id="path338"
   style="fill:#ffffff" />
	</g>
</g>
<g
   id="g344">
</g>
<g
   id="g346">
</g>
<g
   id="g348">
</g>
<g
   id="g350">
</g>
<g
   id="g352">
</g>
<g
   id="g354">
</g>
<g
   id="g356">
</g>
<g
   id="g358">
</g>
<g
   id="g360">
</g>
<g
   id="g362">
</g>
<g
   id="g364">
</g>
<g
   id="g366">
</g>
<g
   id="g368">
</g>
<g
   id="g370">
</g>
<g
   id="g372">
</g>
</svg>
