<?xml version="1.0" encoding="UTF-8" standalone="no"?>
<svg
   xmlns:dc="http://purl.org/dc/elements/1.1/"
   xmlns:cc="http://creativecommons.org/ns#"
   xmlns:rdf="http://www.w3.org/1999/02/22-rdf-syntax-ns#"
   xmlns:svg="http://www.w3.org/2000/svg"
   xmlns="http://www.w3.org/2000/svg"
   xmlns:sodipodi="http://sodipodi.sourceforge.net/DTD/sodipodi-0.dtd"
   xmlns:inkscape="http://www.inkscape.org/namespaces/inkscape"
   version="1.1"
   id="Capa_1"
   x="0px"
   y="0px"
   viewBox="0 0 27.269 27.269"
   style="enable-background:new 0 0 27.269 27.269;"
   xml:space="preserve"
   sodipodi:docname="terminal-window-white.svg"
   inkscape:version="1.0.1 (3bc2e813f5, 2020-09-07)"><metadata
   id="metadata190"><rdf:RDF><cc:Work
       rdf:about=""><dc:format>image/svg+xml</dc:format><dc:type
         rdf:resource="http://purl.org/dc/dcmitype/StillImage" /><dc:title></dc:title></cc:Work></rdf:RDF></metadata><defs
   id="defs188" /><sodipodi:namedview
   pagecolor="#ffffff"
   bordercolor="#666666"
   borderopacity="1"
   objecttolerance="10"
   gridtolerance="10"
   guidetolerance="10"
   inkscape:pageopacity="0"
   inkscape:pageshadow="2"
   inkscape:window-width="2560"
   inkscape:window-height="1404"
   id="namedview186"
   showgrid="false"
   inkscape:zoom="39.898786"
   inkscape:cx="13.6345"
   inkscape:cy="13.6345"
   inkscape:window-x="0"
   inkscape:window-y="36"
   inkscape:window-maximized="0"
   inkscape:current-layer="Capa_1" />
<g
   id="g153"
   style="fill:#ffffff">
	<path
   style="fill:#ffffff"
   d="M25.323,1.948H1.949C0.871,1.948,0,2.816,0,3.894v19.481c0,1.074,0.871,1.946,1.949,1.946h23.374   c1.071,0,1.946-0.872,1.946-1.946V3.894C27.269,2.816,26.395,1.948,25.323,1.948z M9.315,3.411c0.536,0,0.971,0.431,0.971,0.973   c0,0.537-0.435,0.973-0.971,0.973c-0.538,0-0.978-0.436-0.978-0.973C8.337,3.842,8.777,3.411,9.315,3.411z M6.333,3.411   c0.535,0,0.973,0.431,0.973,0.973c0,0.537-0.438,0.973-0.973,0.973c-0.541,0-0.977-0.436-0.977-0.973   C5.356,3.842,5.792,3.411,6.333,3.411z M3.408,3.411c0.539,0,0.974,0.431,0.974,0.973c0,0.537-0.435,0.973-0.974,0.973   c-0.536,0-0.972-0.436-0.972-0.973C2.436,3.842,2.872,3.411,3.408,3.411z M25.323,23.376H1.949V6.839h23.374V23.376z"
   id="path119" />
	<rect
   x="1.949"
   y="6.839"
   style="fill:#ffffff"
   width="23.374"
   height="16.537"
   id="rect121" />
	<rect
   x="4.185"
   y="9.496"
   style="fill:#ffffff"
   width="2.846"
   height="2.851"
   id="rect123" />
	<rect
   x="8.233"
   y="9.496"
   style="fill:#ffffff"
   width="2.847"
   height="2.851"
   id="rect125" />
	<rect
   x="12.26"
   y="9.496"
   style="fill:#ffffff"
   width="2.847"
   height="2.851"
   id="rect127" />
	<rect
   x="4.185"
   y="13.212"
   style="fill:#ffffff"
   width="2.846"
   height="2.849"
   id="rect129" />
	<rect
   x="8.233"
   y="13.212"
   style="fill:#ffffff"
   width="2.847"
   height="2.849"
   id="rect131" />
	<rect
   x="12.26"
   y="13.212"
   style="fill:#ffffff"
   width="2.847"
   height="2.849"
   id="rect133" />
	<rect
   x="4.195"
   y="17.06"
   style="fill:#ffffff"
   width="2.848"
   height="2.849"
   id="rect135" />
	<rect
   x="8.246"
   y="17.06"
   style="fill:#ffffff"
   width="2.845"
   height="2.849"
   id="rect137" />
	<rect
   x="12.271"
   y="17.06"
   style="fill:#ffffff"
   width="2.847"
   height="2.849"
   id="rect139" />
	<rect
   x="16.206"
   y="9.496"
   style="fill:#ffffff"
   width="2.843"
   height="2.851"
   id="rect141" />
	<rect
   x="20.231"
   y="9.496"
   style="fill:#ffffff"
   width="2.846"
   height="2.851"
   id="rect143" />
	<rect
   x="16.206"
   y="13.212"
   style="fill:#ffffff"
   width="2.843"
   height="2.849"
   id="rect145" />
	<rect
   x="20.231"
   y="13.212"
   style="fill:#ffffff"
   width="2.846"
   height="2.849"
   id="rect147" />
	<rect
   x="16.215"
   y="17.06"
   style="fill:#ffffff"
   width="2.846"
   height="2.849"
   id="rect149" />
	<rect
   x="20.243"
   y="17.06"
   style="fill:#ffffff"
   width="2.845"
   height="2.849"
   id="rect151" />
</g>
<g
   id="g155">
</g>
<g
   id="g157">
</g>
<g
   id="g159">
</g>
<g
   id="g161">
</g>
<g
   id="g163">
</g>
<g
   id="g165">
</g>
<g
   id="g167">
</g>
<g
   id="g169">
</g>
<g
   id="g171">
</g>
<g
   id="g173">
</g>
<g
   id="g175">
</g>
<g
   id="g177">
</g>
<g
   id="g179">
</g>
<g
   id="g181">
</g>
<g
   id="g183">
</g>
</svg>
